HIERARCHY
ROOT Hips
{
	OFFSET 0.000000 0.000000 0.000000
	CHANNELS 6 Xposition Yposition Zposition Xrotation Yrotation Zrotation
	JOINT LeftUpLeg_virtual
	{
		OFFSET 0.000000 0.000000 0.000000
		CHANNELS 3 Xrotation Yrotation Zrotation
		JOINT LeftUpLeg
		{
			OFFSET 10.205400 -3.823500 0.155100
			CHANNELS 3 Xrotation Yrotation Zrotation
			JOINT LeftLeg
			{
				OFFSET 0.708757 -12.982077 0.567790
				CHANNELS 3 Xrotation Yrotation Zrotation
				JOINT LeftFoot
				{
					OFFSET -0.708756 -10.717838 -2.184338
					CHANNELS 3 Xrotation Yrotation Zrotation
					JOINT LeftToeBase
					{
						OFFSET 0.108149 -7.191104 7.560241
						CHANNELS 3 Xrotation Yrotation Zrotation
						JOINT LeftToe_End
						{
							OFFSET 0.070230 0.081724 4.490308
							CHANNELS 3 Xrotation Yrotation Zrotation
							End Site
							{
								OFFSET 0 0 0
							}
						}
					}
				}
			}
		}
	}
	JOINT RightUpLeg_virtual
	{
		OFFSET 0.000000 0.000000 0.000000
		CHANNELS 3 Xrotation Yrotation Zrotation
		JOINT RightUpLeg
		{
			OFFSET -10.205400 -3.823500 0.005500
			CHANNELS 3 Xrotation Yrotation Zrotation
			JOINT RightLeg
			{
				OFFSET -0.708756 -12.982134 0.610632
				CHANNELS 3 Xrotation Yrotation Zrotation
				JOINT RightFoot
				{
					OFFSET 0.708754 -10.717769 -1.945823
					CHANNELS 3 Xrotation Yrotation Zrotation
					JOINT RightToeBase
					{
						OFFSET -0.108140 -7.191069 7.372968
						CHANNELS 3 Xrotation Yrotation Zrotation
						JOINT RightToe_End
						{
							OFFSET -0.070227 0.081735 4.479403
							CHANNELS 3 Xrotation Yrotation Zrotation
							End Site
							{
								OFFSET 0 0 0
							}
						}
					}
				}
			}
		}
	}
	JOINT Spine_virtual
	{
		OFFSET 0.000000 0.000000 0.000000
		CHANNELS 3 Xrotation Yrotation Zrotation
		JOINT Spine
		{
			OFFSET 0.000000 6.876099 0.125700
			CHANNELS 3 Xrotation Yrotation Zrotation
			JOINT Spine1
			{
				OFFSET 0.000000 5.730043 0.104720
				CHANNELS 3 Xrotation Yrotation Zrotation
				JOINT Spine1_split
				{
					OFFSET 0.000000 5.730043 0.104720
					CHANNELS 3 Xrotation Yrotation Zrotation
					JOINT Spine2
					{
						OFFSET 0.000000 5.730043 0.104720
						CHANNELS 3 Xrotation Yrotation Zrotation
						JOINT Neck_virtual
						{
							OFFSET 0.000000 0.000000 0.000000
							CHANNELS 3 Xrotation Yrotation Zrotation
							JOINT Neck
							{
								OFFSET 0.000000 10.314075 0.188496
								CHANNELS 3 Xrotation Yrotation Zrotation
								JOINT Head
								{
									OFFSET 0.000000 7.643700 -2.377400
									CHANNELS 3 Xrotation Yrotation Zrotation
									JOINT HeadTop_End
									{
										OFFSET 0.000000 43.788605 -13.619600
										CHANNELS 3 Xrotation Yrotation Zrotation
										End Site
										{
											OFFSET 0 0 0
										}
									}
								}
							}
						}
						JOINT LeftShoulder_virtual
						{
							OFFSET 0.000000 0.000000 0.000000
							CHANNELS 3 Xrotation Yrotation Zrotation
							JOINT LeftShoulder
							{
								OFFSET 2.196100 4.412489 0.087492
								CHANNELS 3 Xrotation Yrotation Zrotation
								JOINT LeftShoulder_split
								{
									OFFSET 2.196100 4.412489 0.087492
									CHANNELS 3 Xrotation Yrotation Zrotation
									JOINT LeftArm
									{
										OFFSET 8.771219 -2.981674 -0.026999
										CHANNELS 3 Xrotation Yrotation Zrotation
										JOINT LeftForeArm
										{
											OFFSET 8.512804 0.000000 -0.000000
											CHANNELS 3 Xrotation Yrotation Zrotation
											JOINT LeftHand
											{
												OFFSET 18.484802 0.000000 -0.000000
												CHANNELS 3 Xrotation Yrotation Zrotation
												End Site
												{
													OFFSET 0 0 0
												}
											}
										}
									}
								}
							}
						}
						JOINT RightShoulder_virtual
						{
							OFFSET 0.000000 0.000000 0.000000
							CHANNELS 3 Xrotation Yrotation Zrotation
							JOINT RightShoulder
							{
								OFFSET -2.196100 4.412496 0.070690
								CHANNELS 3 Xrotation Yrotation Zrotation
								JOINT RightShoulder_split
								{
									OFFSET -2.196100 4.412496 0.070690
									CHANNELS 3 Xrotation Yrotation Zrotation
									JOINT RightArm
									{
										OFFSET -8.771282 -2.981682 -0.094208
										CHANNELS 3 Xrotation Yrotation Zrotation
										JOINT RightForeArm
										{
											OFFSET -8.494598 0.000000 0.000000
											CHANNELS 3 Xrotation Yrotation Zrotation
											JOINT RightHand
											{
												OFFSET -18.483803 0.000000 0.000001
												CHANNELS 3 Xrotation Yrotation Zrotation
												End Site
												{
													OFFSET 0 0 0
												}
											}
										}
									}
								}
							}
						}
					}
				}
			}
		}
	}
}
MOTION
Frames: 8
Frame Time: 0.03333333
1.447731 18.143204 -1.206141 0.000000 0.000000 0.000000 178.681847 -8.419973 171.073672 -70.587089 -33.234884 34.608603 121.658974 -23.000954 -4.568106 -38.986061 4.766740 -11.684641 -18.554617 -0.402514 0.823637 0.000000 0.000000 0.000000 178.736857 -6.181626 171.321526 -31.689578 6.008129 -37.445238 104.954353 20.126153 0.435327 -56.946286 -14.096981 20.520936 -3.833161 -2.668616 0.653645 0.000000 0.000000 0.000000 179.143076 -7.179500 170.252205 7.707204 4.230460 -2.705582 7.586908 7.068563 -3.908247 0.535272 -3.041205 0.657713 0.000000 0.000000 0.000000 7.760372 6.546817 -3.774146 -2.663837 23.606020 6.994634 5.578762 33.641554 -24.304875 0.000000 0.000000 0.000000 8.409542 6.912353 -4.006020 1.027237 -13.614189 -10.340776 -3.252572 -1.579703 -3.710260 3.435043 2.469421 -31.749926 36.430948 -41.113197 1.052116 0.000000 0.000000 0.000000 7.919378 6.819665 -4.377623 5.115378 -18.244607 13.963212 2.353735 3.277080 -1.869523 13.037416 -13.726197 60.717110 34.417668 50.581943 -8.559520 0.000000 0.000000 0.000000 
1.446171 18.145164 -1.200636 0.000000 0.000000 0.000000 178.675331 -8.421753 171.079641 -70.591904 -33.241738 34.622693 121.653906 -22.995847 -4.554403 -38.947040 4.750675 -11.653448 -18.546141 -0.397920 0.818400 0.000000 0.000000 0.000000 178.730874 -6.199303 171.333424 -31.690391 5.999033 -37.440730 104.937210 20.123040 0.433601 -56.953041 -14.094695 20.515066 -3.827711 -2.661510 0.653397 0.000000 0.000000 0.000000 179.130358 -7.184820 170.265893 7.699917 4.227434 -2.695521 7.576632 7.066865 -3.898750 0.513718 -3.042103 0.660509 0.000000 0.000000 0.000000 7.761919 6.547445 -3.766037 -2.616434 23.620707 6.969474 5.564764 33.648398 -24.292089 0.000000 0.000000 0.000000 8.407130 6.910863 -3.996483 1.029108 -13.629041 -10.349364 -3.262215 -1.598990 -3.717788 3.404170 2.501908 -31.745066 36.423712 -41.078103 1.038532 0.000000 0.000000 0.000000 7.907497 6.816814 -4.368597 5.119762 -18.240222 13.951665 2.362812 3.254844 -1.869799 13.020931 -13.723946 60.715771 34.403468 50.553826 -8.556268 0.000000 0.000000 0.000000 
1.442636 18.148018 -1.197191 0.000000 0.000000 0.000000 178.654034 -8.445074 171.078630 -70.633828 -33.243910 34.612684 121.637787 -22.982946 -4.540489 -38.882880 4.730422 -11.621394 -18.522761 -0.390138 0.807798 0.000000 0.000000 0.000000 178.710971 -6.233579 171.341156 -31.688045 5.981253 -37.449647 104.933173 20.123720 0.431276 -56.949001 -14.095846 20.537598 -3.828656 -2.657217 0.644239 0.000000 0.000000 0.000000 179.106357 -7.209503 170.274253 7.690650 4.216734 -2.682536 7.564668 7.068603 -3.882586 0.515022 -3.035184 0.665198 0.000000 0.000000 0.000000 7.753656 6.552838 -3.751569 -2.526604 23.626121 6.928150 5.589931 33.657693 -24.330978 0.000000 0.000000 0.000000 8.400546 6.912791 -3.980980 1.026475 -13.668792 -10.372324 -3.269286 -1.602368 -3.725898 3.370765 2.556486 -31.746002 36.408641 -41.049457 1.023673 0.000000 0.000000 0.000000 7.890264 6.819972 -4.351424 5.129523 -18.240235 13.915390 2.377407 3.244812 -1.872466 12.983971 -13.686974 60.741234 34.376072 50.459320 -8.545765 0.000000 0.000000 0.000000 
1.438832 18.151302 -1.195993 0.000000 0.000000 0.000000 178.621837 -8.489146 171.070544 -70.716104 -33.238637 34.577676 121.612925 -22.961066 -4.528983 -38.812263 4.709758 -11.587489 -18.462568 -0.378294 0.787999 0.000000 0.000000 0.000000 178.679921 -6.280315 171.341798 -31.668835 5.957440 -37.467354 104.940119 20.126237 0.426879 -56.946702 -14.105806 20.585014 -3.831109 -2.655344 0.628863 0.000000 0.000000 0.000000 179.073640 -7.252555 170.273556 7.683671 4.201123 -2.668424 7.555037 7.076102 -3.861742 0.533395 -3.027102 0.665312 0.000000 0.000000 0.000000 7.739569 6.564331 -3.732938 -2.405409 23.619913 6.883280 5.660308 33.675414 -24.426150 0.000000 0.000000 0.000000 8.393353 6.919088 -3.961447 1.019596 -13.729461 -10.407227 -3.274381 -1.592581 -3.726639 3.331015 2.623080 -31.750288 36.387727 -41.034923 1.010762 0.000000 0.000000 0.000000 7.873351 6.830589 -4.328674 5.143326 -18.246555 13.856939 2.393137 3.246018 -1.886493 12.927139 -13.615861 60.794489 34.333677 50.301611 -8.527373 0.000000 0.000000 0.000000 
1.434762 18.154335 -1.195665 0.000000 0.000000 0.000000 178.582891 -8.551079 171.057389 -70.842831 -33.232470 34.513916 121.584826 -22.933077 -4.514592 -38.735427 4.688882 -11.565932 -18.360489 -0.363552 0.762698 0.000000 0.000000 0.000000 178.641863 -6.337297 171.335323 -31.618629 5.926000 -37.484225 104.948725 20.126348 0.422270 -56.963064 -14.129227 20.639698 -3.826161 -2.656860 0.612147 0.000000 0.000000 0.000000 179.035555 -7.312780 170.264854 7.680966 4.185396 -2.654725 7.550970 7.090042 -3.838025 0.548666 -3.019406 0.666829 0.000000 0.000000 0.000000 7.725624 6.582353 -3.712851 -2.266122 23.604705 6.850896 5.780041 33.706249 -24.578632 0.000000 0.000000 0.000000 8.390747 6.930445 -3.939639 1.010466 -13.802460 -10.449271 -3.269816 -1.579889 -3.719122 3.282256 2.694018 -31.755247 36.364661 -41.044837 1.004834 0.000000 0.000000 0.000000 7.862469 6.848632 -4.303540 5.159437 -18.265913 13.779475 2.398957 3.247332 -1.906904 12.853281 -13.512817 60.868904 34.279698 50.094653 -8.505673 0.000000 0.000000 0.000000 
1.431122 18.156109 -1.193287 0.000000 0.000000 0.000000 178.542183 -8.624474 171.039972 -71.008750 -33.234990 34.423252 121.556303 -22.905403 -4.490880 -38.642560 4.662804 -11.568535 -18.246056 -0.351340 0.747239 0.000000 0.000000 0.000000 178.600650 -6.404883 171.319886 -31.529557 5.887288 -37.493572 104.948882 20.122472 0.419321 -57.010380 -14.169361 20.687772 -3.811789 -2.661033 0.598124 0.000000 0.000000 0.000000 178.995776 -7.384309 170.248189 7.684380 4.173992 -2.642703 7.555246 7.110846 -3.813766 0.553119 -3.010654 0.676461 0.000000 0.000000 0.000000 7.717509 6.605929 -3.693755 -2.122841 23.582224 6.842859 5.950563 33.751708 -24.785390 0.000000 0.000000 0.000000 8.398721 6.946398 -3.917021 1.001182 -13.877224 -10.492726 -3.259150 -1.565665 -3.707350 3.216772 2.756531 -31.757169 36.338966 -41.086340 1.008997 0.000000 0.000000 0.000000 7.862848 6.872290 -4.278785 5.175949 -18.304369 13.687249 2.402533 3.246633 -1.935586 12.767376 -13.381864 60.960996 34.220948 49.856884 -8.488328 0.000000 0.000000 0.000000 
1.429265 18.157547 -1.189856 0.000000 0.000000 0.000000 178.503237 -8.707116 171.018197 -71.202530 -33.252827 34.313204 121.528873 -22.879074 -4.460081 -38.530709 4.627429 -11.585460 -18.141414 -0.344245 0.745307 0.000000 0.000000 0.000000 178.559955 -6.482337 171.295749 -31.403089 5.840796 -37.488118 104.932845 20.111057 0.421005 -57.084843 -14.226809 20.721952 -3.798871 -2.667538 0.590053 0.000000 0.000000 0.000000 178.956625 -7.463086 170.226359 7.692566 4.170010 -2.633056 7.570465 7.136649 -3.789622 0.548740 -2.990146 0.687058 0.000000 0.000000 0.000000 7.719806 6.632945 -3.676645 -1.987166 23.555150 6.868879 6.163872 33.810232 -25.034219 0.000000 0.000000 0.000000 8.420268 6.965340 -3.895025 0.994173 -13.945237 -10.535639 -3.246369 -1.553579 -3.695019 3.127739 2.801309 -31.750087 36.313377 -41.162016 1.027588 0.000000 0.000000 0.000000 7.877354 6.898838 -4.256420 5.192719 -18.364644 13.583226 2.410277 3.252144 -1.965431 12.681260 -13.227492 61.072922 34.161997 49.599095 -8.477880 0.000000 0.000000 0.000000 
1.429038 18.158958 -1.185112 0.000000 0.000000 0.000000 178.468513 -8.797882 170.989415 -71.413535 -33.288354 34.188833 121.501033 -22.855247 -4.426284 -38.397862 4.582374 -11.610906 -18.048198 -0.341348 0.749974 0.000000 0.000000 0.000000 178.524793 -6.567364 171.267485 -31.244987 5.788460 -37.470691 104.900354 20.094014 0.427149 -57.176647 -14.298712 20.743100 -3.796049 -2.676774 0.588041 0.000000 0.000000 0.000000 178.923157 -7.542598 170.202549 7.703087 4.174677 -2.626175 7.597758 7.164249 -3.766042 0.549198 -2.964318 0.689526 0.000000 0.000000 0.000000 7.736042 6.660822 -3.661522 -1.869234 23.526850 6.932010 6.406178 33.878756 -25.308542 0.000000 0.000000 0.000000 8.456666 6.984865 -3.874428 0.991117 -14.001491 -10.575148 -3.228915 -1.538782 -3.691158 3.017099 2.820602 -31.726208 36.286367 -41.267634 1.060287 0.000000 0.000000 0.000000 7.906260 6.925421 -4.236679 5.210188 -18.446415 13.474425 2.417687 3.264843 -1.989080 12.603898 -13.054259 61.210516 34.098934 49.313102 -8.466722 0.000000 0.000000 0.000000 
